ply
format ascii 1.0
element vertex 210
property float x
property float y
property float z
element face 360
property list uchar int vertex_index
end_header
30 50 144.976
30 55 144.976
40 50 145.846
40 55 145.846
20 50 140.818
20 55 140.818
30 60 144.62
40 60 145.489
50 55 143.276
50 50 143.276
40 45 145.489
30 45 144.62
20 45 140.462
50 60 142.919
50 45 142.919
20 60 140.462
10 50 134.09
10 55 134.09
40 65 144.784
30 65 143.915
60 55 137.711
60 50 137.711
40 40 144.784
30 40 143.915
10 45 133.734
20 40 139.757
50 65 142.214
60 60 137.355
50 40 142.214
60 45 137.355
10 60 133.734
20 65 139.757
0 50 125.955
0 55 125.955
40 70 143.747
30 70 142.878
70 55 130.113
70 50 130.113
40 35 143.747
30 35 142.878
10 40 133.029
0 45 125.599
20 35 138.719
50 70 141.177
60 65 136.65
70 60 129.757
60 40 136.65
50 35 141.177
70 45 129.757
10 65 133.029
0 60 125.599
20 70 138.719
40 75 142.4
30 75 141.53
80 55 121.797
80 50 121.797
40 30 142.4
30 30 141.53
0 40 124.894
10 35 131.991
20 30 137.372
60 70 135.612
50 75 139.83
70 65 129.052
80 60 121.441
60 35 135.612
70 40 129.052
50 30 139.83
80 45 121.441
0 65 124.894
10 70 131.991
20 75 137.372
40 80 140.773
30 80 139.904
90 55 114.2
90 50 114.2
40 25 140.773
30 25 139.904
0 35 123.856
10 30 130.644
20 25 135.746
60 75 134.265
70 70 128.015
50 80 138.203
80 65 120.736
90 60 113.843
70 35 128.015
60 30 134.265
80 40 120.736
50 25 138.203
90 45 113.843
0 70 123.856
10 75 130.644
20 80 135.746
40 85 138.904
30 85 138.034
40 20 138.904
30 20 138.034
0 30 122.509
10 25 129.018
20 20 133.876
70 75 126.668
60 80 132.638
80 70 119.698
50 85 136.334
90 65 113.138
70 30 126.668
80 35 119.698
60 25 132.638
90 40 113.138
50 20 136.334
0 75 122.509
10 80 129.018
20 85 133.876
40 90 136.833
30 90 135.963
40 15 136.833
30 15 135.963
0 25 120.883
10 20 127.148
20 15 131.805
70 80 125.041
80 75 118.351
60 85 130.769
90 70 112.101
50 90 134.263
80 30 118.351
70 25 125.041
90 35 112.101
60 20 130.769
50 15 134.263
0 80 120.883
10 85 127.148
20 90 131.805
40 95 134.607
30 95 133.737
40 10 134.607
30 10 133.737
0 20 119.013
10 15 125.077
20 10 129.579
80 80 116.725
70 85 123.171
90 75 110.754
60 90 128.698
50 95 132.037
80 25 116.725
90 30 110.754
70 20 123.171
60 15 128.698
50 10 132.037
0 85 119.013
10 90 125.077
20 95 129.579
40 100 132.275
30 100 131.406
40 5 132.275
30 5 131.406
0 15 116.942
10 10 122.851
20 5 127.248
80 85 114.855
90 80 109.127
70 90 121.1
60 95 126.472
50 100 129.705
90 25 109.127
80 20 114.855
70 15 121.1
60 10 126.472
50 5 129.705
0 90 116.942
10 95 122.851
20 100 127.248
40 0 129.89
30 0 129.021
0 10 114.716
10 5 120.519
20 0 124.863
90 85 107.257
80 90 112.784
70 95 118.874
60 100 124.14
90 20 107.257
80 15 112.784
70 10 118.874
60 5 124.14
50 0 127.321
0 95 114.716
10 100 120.519
0 5 112.385
10 0 118.135
90 90 105.186
80 95 110.558
70 100 116.543
90 15 105.186
80 10 110.558
70 5 116.543
60 0 121.756
0 100 112.385
0 0 110
90 95 102.96
80 100 108.226
90 10 102.96
80 5 108.226
70 0 114.158
90 100 100.629
90 5 100.629
80 0 105.842
90 0 98.2443
3 0 2 1 
3 3 1 2 
3 0 1 4 
3 1 3 7 
3 3 2 8 
3 2 0 10 
3 0 4 11 
3 1 4 5 
3 1 7 6 
3 3 7 8 
3 2 8 9 
3 2 10 9 
3 0 10 11 
3 4 11 12 
3 1 5 6 
3 4 5 16 
3 7 6 18 
3 7 8 13 
3 8 9 20 
3 10 9 14 
3 10 11 22 
3 4 12 16 
3 11 12 23 
3 5 6 15 
3 5 16 17 
3 7 18 13 
3 6 18 19 
3 8 13 20 
3 9 20 21 
3 10 14 22 
3 9 14 21 
3 11 22 23 
3 12 16 24 
3 12 23 25 
3 5 15 17 
3 6 15 19 
3 16 17 32 
3 18 13 26 
3 18 19 34 
3 13 20 27 
3 20 21 36 
3 14 22 28 
3 14 21 29 
3 22 23 38 
3 12 24 25 
3 16 24 32 
3 23 25 39 
3 15 17 30 
3 15 19 31 
3 17 32 33 
3 18 26 34 
3 13 26 27 
3 19 34 35 
3 20 27 36 
3 21 36 37 
3 14 28 29 
3 22 28 38 
3 21 29 37 
3 23 38 39 
3 24 25 40 
3 24 32 41 
3 25 39 42 
3 15 30 31 
3 17 30 33 
3 19 31 35 
3 26 34 43 
3 26 27 44 
3 34 35 52 
3 27 36 45 
3 36 37 54 
3 28 29 46 
3 28 38 47 
3 29 37 48 
3 38 39 56 
3 24 40 41 
3 25 40 42 
3 39 42 57 
3 30 31 49 
3 30 33 50 
3 31 35 51 
3 26 43 44 
3 34 43 52 
3 27 44 45 
3 35 52 53 
3 36 45 54 
3 37 54 55 
3 28 46 47 
3 29 46 48 
3 38 47 56 
3 37 48 55 
3 39 56 57 
3 40 41 58 
3 40 42 59 
3 42 57 60 
3 30 49 50 
3 31 49 51 
3 35 51 53 
3 43 44 61 
3 43 52 62 
3 44 45 63 
3 52 53 72 
3 45 54 64 
3 54 55 74 
3 46 47 65 
3 46 48 66 
3 47 56 67 
3 48 55 68 
3 56 57 76 
3 40 58 59 
3 42 59 60 
3 57 60 77 
3 49 50 69 
3 49 51 70 
3 51 53 71 
3 43 61 62 
3 44 61 63 
3 52 62 72 
3 45 63 64 
3 53 72 73 
3 54 64 74 
3 55 74 75 
3 46 65 66 
3 47 65 67 
3 48 66 68 
3 56 67 76 
3 55 68 75 
3 57 76 77 
3 58 59 78 
3 59 60 79 
3 60 77 80 
3 49 69 70 
3 51 70 71 
3 53 71 73 
3 61 62 81 
3 61 63 82 
3 62 72 83 
3 63 64 84 
3 72 73 94 
3 64 74 85 
3 65 66 86 
3 65 67 87 
3 66 68 88 
3 67 76 89 
3 68 75 90 
3 76 77 96 
3 59 78 79 
3 60 79 80 
3 77 80 97 
3 69 70 91 
3 70 71 92 
3 71 73 93 
3 61 81 82 
3 62 81 83 
3 63 82 84 
3 72 83 94 
3 64 84 85 
3 73 94 95 
3 65 86 87 
3 66 86 88 
3 67 87 89 
3 68 88 90 
3 76 89 96 
3 77 96 97 
3 78 79 98 
3 79 80 99 
3 80 97 100 
3 70 91 92 
3 71 92 93 
3 73 93 95 
3 81 82 101 
3 81 83 102 
3 82 84 103 
3 83 94 104 
3 84 85 105 
3 94 95 114 
3 86 87 106 
3 86 88 107 
3 87 89 108 
3 88 90 109 
3 89 96 110 
3 96 97 116 
3 79 98 99 
3 80 99 100 
3 97 100 117 
3 91 92 111 
3 92 93 112 
3 93 95 113 
3 81 101 102 
3 82 101 103 
3 83 102 104 
3 84 103 105 
3 94 104 114 
3 95 114 115 
3 86 106 107 
3 87 106 108 
3 88 107 109 
3 89 108 110 
3 96 110 116 
3 97 116 117 
3 98 99 118 
3 99 100 119 
3 100 117 120 
3 92 111 112 
3 93 112 113 
3 95 113 115 
3 101 102 121 
3 101 103 122 
3 102 104 123 
3 103 105 124 
3 104 114 125 
3 114 115 134 
3 106 107 126 
3 106 108 127 
3 107 109 128 
3 108 110 129 
3 110 116 130 
3 116 117 136 
3 99 118 119 
3 100 119 120 
3 117 120 137 
3 111 112 131 
3 112 113 132 
3 113 115 133 
3 101 121 122 
3 102 121 123 
3 103 122 124 
3 104 123 125 
3 114 125 134 
3 115 134 135 
3 106 126 127 
3 107 126 128 
3 108 127 129 
3 110 129 130 
3 116 130 136 
3 117 136 137 
3 118 119 138 
3 119 120 139 
3 120 137 140 
3 112 131 132 
3 113 132 133 
3 115 133 135 
3 121 122 141 
3 121 123 142 
3 122 124 143 
3 123 125 144 
3 125 134 145 
3 134 135 154 
3 126 127 146 
3 126 128 147 
3 127 129 148 
3 129 130 149 
3 130 136 150 
3 136 137 156 
3 119 138 139 
3 120 139 140 
3 137 140 157 
3 131 132 151 
3 132 133 152 
3 133 135 153 
3 121 141 142 
3 122 141 143 
3 123 142 144 
3 125 144 145 
3 134 145 154 
3 135 154 155 
3 126 146 147 
3 127 146 148 
3 129 148 149 
3 130 149 150 
3 136 150 156 
3 137 156 157 
3 138 139 158 
3 139 140 159 
3 140 157 160 
3 132 151 152 
3 133 152 153 
3 135 153 155 
3 141 142 161 
3 141 143 162 
3 142 144 163 
3 144 145 164 
3 145 154 165 
3 146 147 166 
3 146 148 167 
3 148 149 168 
3 149 150 169 
3 150 156 170 
3 156 157 174 
3 139 158 159 
3 140 159 160 
3 157 160 175 
3 151 152 171 
3 152 153 172 
3 153 155 173 
3 141 161 162 
3 142 161 163 
3 144 163 164 
3 145 164 165 
3 146 166 167 
3 148 167 168 
3 149 168 169 
3 150 169 170 
3 156 170 174 
3 157 174 175 
3 158 159 176 
3 159 160 177 
3 160 175 178 
3 152 171 172 
3 153 172 173 
3 161 162 179 
3 161 163 180 
3 163 164 181 
3 164 165 182 
3 166 167 183 
3 167 168 184 
3 168 169 185 
3 169 170 186 
3 170 174 187 
3 159 176 177 
3 160 177 178 
3 171 172 188 
3 172 173 189 
3 161 179 180 
3 163 180 181 
3 164 181 182 
3 167 183 184 
3 168 184 185 
3 169 185 186 
3 170 186 187 
3 176 177 190 
3 177 178 191 
3 172 188 189 
3 179 180 192 
3 180 181 193 
3 181 182 194 
3 183 184 195 
3 184 185 196 
3 185 186 197 
3 186 187 198 
3 177 190 191 
3 188 189 199 
3 180 192 193 
3 181 193 194 
3 184 195 196 
3 185 196 197 
3 186 197 198 
3 190 191 200 
3 192 193 201 
3 193 194 202 
3 195 196 203 
3 196 197 204 
3 197 198 205 
3 193 201 202 
3 196 203 204 
3 197 204 205 
3 201 202 206 
3 203 204 207 
3 204 205 208 
3 204 207 208 
3 207 208 209 
