ply
format ascii 1.0
element vertex 544
property float x
property float y
property float z
element face 408
property list uchar int vertex_index
end_header
0 0 0
25 0 0
25 26.25 0
0 26.25 0
0 0 20
25 0 20.4588
25 26.25 20.4381
0 26.25 20.176
0 0 20
25 0 20.4588
25 26.25 20.4381
0 26.25 20.176
0 0 50
25 0 50
25 26.25 50
0 26.25 50
0 26.25 0
25 26.25 0
25 52.5 0
0 52.5 0
0 26.25 20.176
25 26.25 20.4381
25 52.5 20.3792
0 52.5 20.4515
0 26.25 20.176
25 26.25 20.4381
25 52.5 20.3792
0 52.5 20.4515
0 26.25 50
25 26.25 50
25 52.5 50
0 52.5 50
25 0 0
50 0 0
50 26.25 0
25 26.25 0
25 0 20.4588
50 0 20.9554
50 26.25 20.6715
25 26.25 20.4381
25 0 20.4588
50 0 20.9554
50 26.25 20.6715
25 26.25 20.4381
25 0 50
50 0 50
50 26.25 50
25 26.25 50
25 26.25 0
50 26.25 0
50 52.5 0
25 52.5 0
25 26.25 20.4381
50 26.25 20.6715
50 52.5 20.1828
25 52.5 20.3792
25 26.25 20.4381
50 26.25 20.6715
50 52.5 20.1828
25 52.5 20.3792
25 26.25 50
50 26.25 50
50 52.5 50
25 52.5 50
0 52.5 0
25 52.5 0
25 78.75 0
0 78.75 0
0 52.5 20.4515
25 52.5 20.3792
25 78.75 20.3685
0 78.75 20.6358
0 52.5 20.4515
25 52.5 20.3792
25 78.75 20.3685
0 78.75 20.6358
0 52.5 50
25 52.5 50
25 78.75 50
0 78.75 50
0 78.75 0
25 78.75 0
25 105 0
0 105 0
0 78.75 20.6358
25 78.75 20.3685
25 105 20.6097
0 105 20.6868
0 78.75 20.6358
25 78.75 20.3685
25 105 20.6097
0 105 20.6868
0 78.75 50
25 78.75 50
25 105 50
0 105 50
25 52.5 0
50 52.5 0
50 78.75 0
25 78.75 0
25 52.5 20.3792
50 52.5 20.1828
50 78.75 20.8809
25 78.75 20.3685
25 52.5 20.3792
50 52.5 20.1828
50 78.75 20.8809
25 78.75 20.3685
25 52.5 50
50 52.5 50
50 78.75 50
25 78.75 50
25 78.75 0
50 78.75 0
50 105 0
25 105 0
25 78.75 20.3685
50 78.75 20.8809
50 105 20.6521
25 105 20.6097
25 78.75 20.3685
50 78.75 20.8809
50 105 20.6521
25 105 20.6097
25 78.75 50
50 78.75 50
50 105 50
25 105 50
50 0 0
75 0 0
75 26.25 0
50 26.25 0
50 0 20.9554
75 0 20.2861
75 26.25 20.6029
50 26.25 20.6715
50 0 20.9554
75 0 20.2861
75 26.25 20.6029
50 26.25 20.6715
50 0 50
75 0 50
75 26.25 50
50 26.25 50
50 26.25 0
75 26.25 0
75 52.5 0
50 52.5 0
50 26.25 20.6715
75 26.25 20.6029
75 52.5 20.6297
50 52.5 20.1828
50 26.25 20.6715
75 26.25 20.6029
75 52.5 20.6297
50 52.5 20.1828
50 26.25 50
75 26.25 50
75 52.5 50
50 52.5 50
75 0 0
100 0 0
100 26.25 0
75 26.25 0
75 0 20.2861
100 0 20.886
100 26.25 20.5336
75 26.25 20.6029
75 0 20.2861
100 0 20.886
100 26.25 20.5336
75 26.25 20.6029
75 0 50
100 0 50
100 26.25 50
75 26.25 50
75 26.25 0
100 26.25 0
100 52.5 0
75 52.5 0
75 26.25 20.6029
100 26.25 20.5336
100 52.5 20.8779
75 52.5 20.6297
75 26.25 20.6029
100 26.25 20.5336
100 52.5 20.8779
75 52.5 20.6297
75 26.25 50
100 26.25 50
100 52.5 50
75 52.5 50
50 52.5 0
75 52.5 0
75 78.75 0
50 78.75 0
50 52.5 20.1828
75 52.5 20.6297
75 78.75 20.3889
50 78.75 20.8809
50 52.5 20.1828
75 52.5 20.6297
75 78.75 20.3889
50 78.75 20.8809
50 52.5 50
75 52.5 50
75 78.75 50
50 78.75 50
50 78.75 0
75 78.75 0
75 105 0
50 105 0
50 78.75 20.8809
75 78.75 20.3889
75 105 20.499
50 105 20.6521
50 78.75 20.8809
75 78.75 20.3889
75 105 20.499
50 105 20.6521
50 78.75 50
75 78.75 50
75 105 50
50 105 50
75 52.5 0
100 52.5 0
100 78.75 0
75 78.75 0
75 52.5 20.6297
100 52.5 20.8779
100 78.75 20.409
75 78.75 20.3889
75 52.5 20.6297
100 52.5 20.8779
100 78.75 20.409
75 78.75 20.3889
75 52.5 50
100 52.5 50
100 78.75 50
75 78.75 50
75 78.75 0
100 78.75 0
100 105 0
75 105 0
75 78.75 20.3889
100 78.75 20.409
100 105 20.4397
75 105 20.499
75 78.75 20.3889
100 78.75 20.409
100 105 20.4397
75 105 20.499
75 78.75 50
100 78.75 50
100 105 50
75 105 50
0 0 100
25 0 100
25 26.25 100
0 26.25 100
0 0 125
25 0 125
25 26.25 125
0 26.25 125
0 0 125
25 0 125
25 26.25 125
0 26.25 125
0 0 150
25 0 150
25 26.25 150
0 26.25 150
0 26.25 100
25 26.25 100
25 52.5 100
0 52.5 100
0 26.25 125
25 26.25 125
25 52.5 125
0 52.5 125
0 26.25 125
25 26.25 125
25 52.5 125
0 52.5 125
0 26.25 150
25 26.25 150
25 52.5 150
0 52.5 150
25 0 100
50 0 100
50 26.25 100
25 26.25 100
25 0 125
50 0 125
50 26.25 125
25 26.25 125
25 0 125
50 0 125
50 26.25 125
25 26.25 125
25 0 150
50 0 150
50 26.25 150
25 26.25 150
25 26.25 100
50 26.25 100
50 52.5 100
25 52.5 100
25 26.25 125
50 26.25 125
50 52.5 125
25 52.5 125
25 26.25 125
50 26.25 125
50 52.5 125
25 52.5 125
25 26.25 150
50 26.25 150
50 52.5 150
25 52.5 150
0 0 150
50 0 150
50 52.5 150
0 52.5 150
0 0 200
50 0 200
50 52.5 200
0 52.5 200
0 52.5 100
25 52.5 100
25 78.75 100
0 78.75 100
0 52.5 125
25 52.5 125
25 78.75 125
0 78.75 125
0 52.5 125
25 52.5 125
25 78.75 125
0 78.75 125
0 52.5 150
25 52.5 150
25 78.75 150
0 78.75 150
0 78.75 100
25 78.75 100
25 105 100
0 105 100
0 78.75 125
25 78.75 125
25 105 125
0 105 125
0 78.75 125
25 78.75 125
25 105 125
0 105 125
0 78.75 150
25 78.75 150
25 105 150
0 105 150
25 52.5 100
50 52.5 100
50 78.75 100
25 78.75 100
25 52.5 125
50 52.5 125
50 78.75 125
25 78.75 125
25 52.5 125
50 52.5 125
50 78.75 125
25 78.75 125
25 52.5 150
50 52.5 150
50 78.75 150
25 78.75 150
25 78.75 100
50 78.75 100
50 105 100
25 105 100
25 78.75 125
50 78.75 125
50 105 125
25 105 125
25 78.75 125
50 78.75 125
50 105 125
25 105 125
25 78.75 150
50 78.75 150
50 105 150
25 105 150
0 52.5 150
50 52.5 150
50 105 150
0 105 150
0 52.5 200
50 52.5 200
50 105 200
0 105 200
50 0 100
75 0 100
75 26.25 100
50 26.25 100
50 0 125
75 0 125
75 26.25 125
50 26.25 125
50 0 125
75 0 125
75 26.25 125
50 26.25 125
50 0 150
75 0 150
75 26.25 150
50 26.25 150
50 26.25 100
75 26.25 100
75 52.5 100
50 52.5 100
50 26.25 125
75 26.25 125
75 52.5 125
50 52.5 125
50 26.25 125
75 26.25 125
75 52.5 125
50 52.5 125
50 26.25 150
75 26.25 150
75 52.5 150
50 52.5 150
75 0 100
100 0 100
100 26.25 100
75 26.25 100
75 0 125
100 0 125
100 26.25 125
75 26.25 125
75 0 125
100 0 125
100 26.25 125
75 26.25 125
75 0 150
100 0 150
100 26.25 150
75 26.25 150
75 26.25 100
100 26.25 100
100 52.5 100
75 52.5 100
75 26.25 125
100 26.25 125
100 52.5 125
75 52.5 125
75 26.25 125
100 26.25 125
100 52.5 125
75 52.5 125
75 26.25 150
100 26.25 150
100 52.5 150
75 52.5 150
50 0 150
100 0 150
100 52.5 150
50 52.5 150
50 0 200
100 0 200
100 52.5 200
50 52.5 200
50 52.5 100
75 52.5 100
75 78.75 100
50 78.75 100
50 52.5 125
75 52.5 125
75 78.75 125
50 78.75 125
50 52.5 125
75 52.5 125
75 78.75 125
50 78.75 125
50 52.5 150
75 52.5 150
75 78.75 150
50 78.75 150
50 78.75 100
75 78.75 100
75 105 100
50 105 100
50 78.75 125
75 78.75 125
75 105 125
50 105 125
50 78.75 125
75 78.75 125
75 105 125
50 105 125
50 78.75 150
75 78.75 150
75 105 150
50 105 150
75 52.5 100
100 52.5 100
100 78.75 100
75 78.75 100
75 52.5 125
100 52.5 125
100 78.75 125
75 78.75 125
75 52.5 125
100 52.5 125
100 78.75 125
75 78.75 125
75 52.5 150
100 52.5 150
100 78.75 150
75 78.75 150
75 78.75 100
100 78.75 100
100 105 100
75 105 100
75 78.75 125
100 78.75 125
100 105 125
75 105 125
75 78.75 125
100 78.75 125
100 105 125
75 105 125
75 78.75 150
100 78.75 150
100 105 150
75 105 150
50 52.5 150
100 52.5 150
100 105 150
50 105 150
50 52.5 200
100 52.5 200
100 105 200
50 105 200
4 0 1 2 3
4 7 6 5 4
4 0 4 5 1
4 1 5 6 2
4 2 6 7 3
4 3 7 4 0
4 8 9 10 11
4 15 14 13 12
4 8 12 13 9
4 9 13 14 10
4 10 14 15 11
4 11 15 12 8
4 16 17 18 19
4 23 22 21 20
4 16 20 21 17
4 17 21 22 18
4 18 22 23 19
4 19 23 20 16
4 24 25 26 27
4 31 30 29 28
4 24 28 29 25
4 25 29 30 26
4 26 30 31 27
4 27 31 28 24
4 32 33 34 35
4 39 38 37 36
4 32 36 37 33
4 33 37 38 34
4 34 38 39 35
4 35 39 36 32
4 40 41 42 43
4 47 46 45 44
4 40 44 45 41
4 41 45 46 42
4 42 46 47 43
4 43 47 44 40
4 48 49 50 51
4 55 54 53 52
4 48 52 53 49
4 49 53 54 50
4 50 54 55 51
4 51 55 52 48
4 56 57 58 59
4 63 62 61 60
4 56 60 61 57
4 57 61 62 58
4 58 62 63 59
4 59 63 60 56
4 64 65 66 67
4 71 70 69 68
4 64 68 69 65
4 65 69 70 66
4 66 70 71 67
4 67 71 68 64
4 72 73 74 75
4 79 78 77 76
4 72 76 77 73
4 73 77 78 74
4 74 78 79 75
4 75 79 76 72
4 80 81 82 83
4 87 86 85 84
4 80 84 85 81
4 81 85 86 82
4 82 86 87 83
4 83 87 84 80
4 88 89 90 91
4 95 94 93 92
4 88 92 93 89
4 89 93 94 90
4 90 94 95 91
4 91 95 92 88
4 96 97 98 99
4 103 102 101 100
4 96 100 101 97
4 97 101 102 98
4 98 102 103 99
4 99 103 100 96
4 104 105 106 107
4 111 110 109 108
4 104 108 109 105
4 105 109 110 106
4 106 110 111 107
4 107 111 108 104
4 112 113 114 115
4 119 118 117 116
4 112 116 117 113
4 113 117 118 114
4 114 118 119 115
4 115 119 116 112
4 120 121 122 123
4 127 126 125 124
4 120 124 125 121
4 121 125 126 122
4 122 126 127 123
4 123 127 124 120
4 128 129 130 131
4 135 134 133 132
4 128 132 133 129
4 129 133 134 130
4 130 134 135 131
4 131 135 132 128
4 136 137 138 139
4 143 142 141 140
4 136 140 141 137
4 137 141 142 138
4 138 142 143 139
4 139 143 140 136
4 144 145 146 147
4 151 150 149 148
4 144 148 149 145
4 145 149 150 146
4 146 150 151 147
4 147 151 148 144
4 152 153 154 155
4 159 158 157 156
4 152 156 157 153
4 153 157 158 154
4 154 158 159 155
4 155 159 156 152
4 160 161 162 163
4 167 166 165 164
4 160 164 165 161
4 161 165 166 162
4 162 166 167 163
4 163 167 164 160
4 168 169 170 171
4 175 174 173 172
4 168 172 173 169
4 169 173 174 170
4 170 174 175 171
4 171 175 172 168
4 176 177 178 179
4 183 182 181 180
4 176 180 181 177
4 177 181 182 178
4 178 182 183 179
4 179 183 180 176
4 184 185 186 187
4 191 190 189 188
4 184 188 189 185
4 185 189 190 186
4 186 190 191 187
4 187 191 188 184
4 192 193 194 195
4 199 198 197 196
4 192 196 197 193
4 193 197 198 194
4 194 198 199 195
4 195 199 196 192
4 200 201 202 203
4 207 206 205 204
4 200 204 205 201
4 201 205 206 202
4 202 206 207 203
4 203 207 204 200
4 208 209 210 211
4 215 214 213 212
4 208 212 213 209
4 209 213 214 210
4 210 214 215 211
4 211 215 212 208
4 216 217 218 219
4 223 222 221 220
4 216 220 221 217
4 217 221 222 218
4 218 222 223 219
4 219 223 220 216
4 224 225 226 227
4 231 230 229 228
4 224 228 229 225
4 225 229 230 226
4 226 230 231 227
4 227 231 228 224
4 232 233 234 235
4 239 238 237 236
4 232 236 237 233
4 233 237 238 234
4 234 238 239 235
4 235 239 236 232
4 240 241 242 243
4 247 246 245 244
4 240 244 245 241
4 241 245 246 242
4 242 246 247 243
4 243 247 244 240
4 248 249 250 251
4 255 254 253 252
4 248 252 253 249
4 249 253 254 250
4 250 254 255 251
4 251 255 252 248
4 256 257 258 259
4 263 262 261 260
4 256 260 261 257
4 257 261 262 258
4 258 262 263 259
4 259 263 260 256
4 264 265 266 267
4 271 270 269 268
4 264 268 269 265
4 265 269 270 266
4 266 270 271 267
4 267 271 268 264
4 272 273 274 275
4 279 278 277 276
4 272 276 277 273
4 273 277 278 274
4 274 278 279 275
4 275 279 276 272
4 280 281 282 283
4 287 286 285 284
4 280 284 285 281
4 281 285 286 282
4 282 286 287 283
4 283 287 284 280
4 288 289 290 291
4 295 294 293 292
4 288 292 293 289
4 289 293 294 290
4 290 294 295 291
4 291 295 292 288
4 296 297 298 299
4 303 302 301 300
4 296 300 301 297
4 297 301 302 298
4 298 302 303 299
4 299 303 300 296
4 304 305 306 307
4 311 310 309 308
4 304 308 309 305
4 305 309 310 306
4 306 310 311 307
4 307 311 308 304
4 312 313 314 315
4 319 318 317 316
4 312 316 317 313
4 313 317 318 314
4 314 318 319 315
4 315 319 316 312
4 320 321 322 323
4 327 326 325 324
4 320 324 325 321
4 321 325 326 322
4 322 326 327 323
4 323 327 324 320
4 328 329 330 331
4 335 334 333 332
4 328 332 333 329
4 329 333 334 330
4 330 334 335 331
4 331 335 332 328
4 336 337 338 339
4 343 342 341 340
4 336 340 341 337
4 337 341 342 338
4 338 342 343 339
4 339 343 340 336
4 344 345 346 347
4 351 350 349 348
4 344 348 349 345
4 345 349 350 346
4 346 350 351 347
4 347 351 348 344
4 352 353 354 355
4 359 358 357 356
4 352 356 357 353
4 353 357 358 354
4 354 358 359 355
4 355 359 356 352
4 360 361 362 363
4 367 366 365 364
4 360 364 365 361
4 361 365 366 362
4 362 366 367 363
4 363 367 364 360
4 368 369 370 371
4 375 374 373 372
4 368 372 373 369
4 369 373 374 370
4 370 374 375 371
4 371 375 372 368
4 376 377 378 379
4 383 382 381 380
4 376 380 381 377
4 377 381 382 378
4 378 382 383 379
4 379 383 380 376
4 384 385 386 387
4 391 390 389 388
4 384 388 389 385
4 385 389 390 386
4 386 390 391 387
4 387 391 388 384
4 392 393 394 395
4 399 398 397 396
4 392 396 397 393
4 393 397 398 394
4 394 398 399 395
4 395 399 396 392
4 400 401 402 403
4 407 406 405 404
4 400 404 405 401
4 401 405 406 402
4 402 406 407 403
4 403 407 404 400
4 408 409 410 411
4 415 414 413 412
4 408 412 413 409
4 409 413 414 410
4 410 414 415 411
4 411 415 412 408
4 416 417 418 419
4 423 422 421 420
4 416 420 421 417
4 417 421 422 418
4 418 422 423 419
4 419 423 420 416
4 424 425 426 427
4 431 430 429 428
4 424 428 429 425
4 425 429 430 426
4 426 430 431 427
4 427 431 428 424
4 432 433 434 435
4 439 438 437 436
4 432 436 437 433
4 433 437 438 434
4 434 438 439 435
4 435 439 436 432
4 440 441 442 443
4 447 446 445 444
4 440 444 445 441
4 441 445 446 442
4 442 446 447 443
4 443 447 444 440
4 448 449 450 451
4 455 454 453 452
4 448 452 453 449
4 449 453 454 450
4 450 454 455 451
4 451 455 452 448
4 456 457 458 459
4 463 462 461 460
4 456 460 461 457
4 457 461 462 458
4 458 462 463 459
4 459 463 460 456
4 464 465 466 467
4 471 470 469 468
4 464 468 469 465
4 465 469 470 466
4 466 470 471 467
4 467 471 468 464
4 472 473 474 475
4 479 478 477 476
4 472 476 477 473
4 473 477 478 474
4 474 478 479 475
4 475 479 476 472
4 480 481 482 483
4 487 486 485 484
4 480 484 485 481
4 481 485 486 482
4 482 486 487 483
4 483 487 484 480
4 488 489 490 491
4 495 494 493 492
4 488 492 493 489
4 489 493 494 490
4 490 494 495 491
4 491 495 492 488
4 496 497 498 499
4 503 502 501 500
4 496 500 501 497
4 497 501 502 498
4 498 502 503 499
4 499 503 500 496
4 504 505 506 507
4 511 510 509 508
4 504 508 509 505
4 505 509 510 506
4 506 510 511 507
4 507 511 508 504
4 512 513 514 515
4 519 518 517 516
4 512 516 517 513
4 513 517 518 514
4 514 518 519 515
4 515 519 516 512
4 520 521 522 523
4 527 526 525 524
4 520 524 525 521
4 521 525 526 522
4 522 526 527 523
4 523 527 524 520
4 528 529 530 531
4 535 534 533 532
4 528 532 533 529
4 529 533 534 530
4 530 534 535 531
4 531 535 532 528
4 536 537 538 539
4 543 542 541 540
4 536 540 541 537
4 537 541 542 538
4 538 542 543 539
4 539 543 540 536
