ply
format ascii 1.0
element vertex 42
property float x
property float y
property float z
element face 80
property list uchar int vertex_index
end_header
40 45 73.4169
40 50 72.6795
50 45 70.6351
50 50 70
40 45 106.583
40 50 107.32
40 55 73.4169
50 55 70.6351
50 50 110
60 50 72.6795
60 45 73.4169
50 45 109.365
50 40 72.6795
40 40 75.8579
50 55 109.365
60 55 73.4169
60 50 107.32
60 40 75.8579
50 40 107.32
40 40 104.142
40 55 106.583
50 60 72.6795
40 60 75.8579
60 45 106.583
50 35 76.7712
40 35 81.3397
60 40 104.142
60 60 75.8579
50 60 107.32
60 55 106.583
60 35 81.3397
50 35 103.229
40 35 98.6603
40 60 104.142
50 65 76.7712
40 65 81.3397
60 35 98.6603
60 60 104.142
60 65 81.3397
50 65 103.229
40 65 98.6603
60 65 98.6603
3 0 2 1 
3 3 1 2 
3 0 1 5 
3 5 0 4 
3 1 3 7 
3 3 2 9 
3 2 0 12 
3 5 4 11 
3 1 7 6 
3 3 7 9 
3 2 9 10 
3 2 12 10 
3 0 12 13 
3 5 11 8 
3 4 11 18 
3 1 6 5 
3 5 6 20 
3 7 6 21 
3 7 9 15 
3 9 10 16 
3 16 10 23 
3 12 10 17 
3 0 13 4 
3 4 13 19 
3 12 13 24 
3 5 8 14 
3 4 18 19 
3 5 20 14 
3 7 21 15 
3 6 21 22 
3 9 15 16 
3 16 15 29 
3 12 17 24 
3 10 17 23 
3 23 17 26 
3 13 24 25 
3 18 19 31 
3 20 14 28 
3 21 15 27 
3 6 22 20 
3 20 22 33 
3 21 22 34 
3 17 24 30 
3 13 25 32 
3 32 13 19 
3 19 31 32 
3 20 28 33 
3 21 27 34 
3 15 27 29 
3 29 27 37 
3 22 34 35 
3 17 30 36 
3 36 17 26 
3 28 33 39 
3 27 34 38 
3 22 35 40 
3 40 22 33 
3 33 39 40 
3 27 38 41 
3 41 27 37 
3 25 32 24 
3 32 24 31 
3 30 36 24 
3 36 24 31 
3 36 31 26 
3 31 26 18 
3 26 18 11 
3 26 11 23 
3 11 23 8 
3 23 8 16 
3 8 16 14 
3 16 14 29 
3 14 29 28 
3 29 28 37 
3 28 37 39 
3 37 39 41 
3 35 40 34 
3 40 34 39 
3 38 41 34 
3 41 34 39 
