ply
format ascii 1.0
element vertex 242
property float x
property float y
property float z
element face 420
property list uchar int vertex_index
end_header
0 0 125
0 5 125
10 0 125
10 5 125
0 10 125
10 10 125
20 5 125
20 0 125
20 10 125
0 15 125
10 15 125
30 5 125
30 0 125
30 10 125
20 15 125
0 20 125
10 20 125
40 5 125
40 0 125
30 15 125
40 10 125
20 20 125
0 25 125
10 25 125
50 5 125
50 0 125
40 15 125
30 20 125
50 10 125
20 25 125
0 30 125
10 30 125
60 5 125
60 0 125
40 20 125
50 15 125
30 25 125
60 10 125
20 30 125
0 35 125
10 35 125
70 5 125
70 0 125
50 20 125
40 25 125
60 15 125
30 30 125
70 10 125
20 35 125
0 40 125
10 40 125
80 5 125
80 0 125
50 25 125
60 20 125
40 30 125
70 15 125
30 35 125
80 10 125
20 40 125
0 45 125
10 45 125
90 5 125
90 0 125
60 25 125
50 30 125
70 20 125
40 35 125
80 15 125
30 40 125
90 10 125
20 45 125
0 50 125
10 50 125
100 5 125
100 0 125
60 30 125
70 25 125
50 35 125
80 20 125
40 40 125
90 15 125
30 45 125
100 10 125
20 50 125
0 55 125
10 55 125
70 30 125
60 35 125
80 25 125
50 40 125
90 20 125
40 45 125
100 15 125
30 50 125
20 55 125
0 60 125
10 60 125
70 35 125
80 30 125
60 40 125
90 25 125
50 45 125
100 20 125
40 50 125
30 55 125
20 60 125
0 65 125
10 65 125
80 35 125
70 40 125
90 30 125
60 45 125
100 25 125
50 50 125
40 55 125
30 60 125
20 65 125
0 70 125
10 70 125
80 40 125
90 35 125
70 45 125
100 30 125
60 50 125
50 55 125
40 60 125
30 65 125
20 70 125
0 75 125
10 75 125
90 40 125
80 45 125
100 35 125
70 50 125
60 55 125
50 60 125
40 65 125
30 70 125
20 75 125
0 80 125
10 80 125
90 45 125
100 40 125
80 50 125
70 55 125
60 60 125
50 65 125
40 70 125
30 75 125
20 80 125
0 85 125
10 85 125
100 45 125
90 50 125
80 55 125
70 60 125
60 65 125
50 70 125
40 75 125
30 80 125
20 85 125
0 90 125
10 90 125
100 50 125
90 55 125
80 60 125
70 65 125
60 70 125
50 75 125
40 80 125
30 85 125
20 90 125
0 95 125
10 95 125
100 55 125
90 60 125
80 65 125
70 70 125
60 75 125
50 80 125
40 85 125
30 90 125
20 95 125
0 100 125
10 100 125
100 60 125
90 65 125
80 70 125
70 75 125
60 80 125
50 85 125
40 90 125
30 95 125
20 100 125
0 105 125
10 105 125
100 65 125
90 70 125
80 75 125
70 80 125
60 85 125
50 90 125
40 95 125
30 100 125
20 105 125
100 70 125
90 75 125
80 80 125
70 85 125
60 90 125
50 95 125
40 100 125
30 105 125
100 75 125
90 80 125
80 85 125
70 90 125
60 95 125
50 100 125
40 105 125
100 80 125
90 85 125
80 90 125
70 95 125
60 100 125
50 105 125
100 85 125
90 90 125
80 95 125
70 100 125
60 105 125
100 90 125
90 95 125
80 100 125
70 105 125
100 95 125
90 100 125
80 105 125
100 100 125
90 105 125
100 105 125
3 0 2 1 
3 3 1 2 
3 1 3 4 
3 3 2 6 
3 3 4 5 
3 3 6 5 
3 2 6 7 
3 4 5 9 
3 6 5 8 
3 6 7 11 
3 5 9 10 
3 6 8 11 
3 5 8 10 
3 7 11 12 
3 9 10 15 
3 8 11 13 
3 8 10 14 
3 11 12 17 
3 10 15 16 
3 8 13 14 
3 11 13 17 
3 10 14 16 
3 12 17 18 
3 15 16 22 
3 13 14 19 
3 13 17 20 
3 14 16 21 
3 17 18 24 
3 16 22 23 
3 13 19 20 
3 14 19 21 
3 17 20 24 
3 16 21 23 
3 18 24 25 
3 22 23 30 
3 19 20 26 
3 19 21 27 
3 20 24 28 
3 21 23 29 
3 24 25 32 
3 23 30 31 
3 19 26 27 
3 20 26 28 
3 21 27 29 
3 24 28 32 
3 23 29 31 
3 25 32 33 
3 30 31 39 
3 26 27 34 
3 26 28 35 
3 27 29 36 
3 28 32 37 
3 29 31 38 
3 32 33 41 
3 31 39 40 
3 26 34 35 
3 27 34 36 
3 28 35 37 
3 29 36 38 
3 32 37 41 
3 31 38 40 
3 33 41 42 
3 39 40 49 
3 34 35 43 
3 34 36 44 
3 35 37 45 
3 36 38 46 
3 37 41 47 
3 38 40 48 
3 41 42 51 
3 40 49 50 
3 34 43 44 
3 35 43 45 
3 36 44 46 
3 37 45 47 
3 38 46 48 
3 41 47 51 
3 40 48 50 
3 42 51 52 
3 49 50 60 
3 43 44 53 
3 43 45 54 
3 44 46 55 
3 45 47 56 
3 46 48 57 
3 47 51 58 
3 48 50 59 
3 51 52 62 
3 50 60 61 
3 43 53 54 
3 44 53 55 
3 45 54 56 
3 46 55 57 
3 47 56 58 
3 48 57 59 
3 51 58 62 
3 50 59 61 
3 52 62 63 
3 60 61 72 
3 53 54 64 
3 53 55 65 
3 54 56 66 
3 55 57 67 
3 56 58 68 
3 57 59 69 
3 58 62 70 
3 59 61 71 
3 62 63 74 
3 61 72 73 
3 53 64 65 
3 54 64 66 
3 55 65 67 
3 56 66 68 
3 57 67 69 
3 58 68 70 
3 59 69 71 
3 62 70 74 
3 61 71 73 
3 63 74 75 
3 72 73 85 
3 64 65 76 
3 64 66 77 
3 65 67 78 
3 66 68 79 
3 67 69 80 
3 68 70 81 
3 69 71 82 
3 70 74 83 
3 71 73 84 
3 73 85 86 
3 64 76 77 
3 65 76 78 
3 66 77 79 
3 67 78 80 
3 68 79 81 
3 69 80 82 
3 70 81 83 
3 71 82 84 
3 73 84 86 
3 85 86 96 
3 76 77 87 
3 76 78 88 
3 77 79 89 
3 78 80 90 
3 79 81 91 
3 80 82 92 
3 81 83 93 
3 82 84 94 
3 84 86 95 
3 86 96 97 
3 76 87 88 
3 77 87 89 
3 78 88 90 
3 79 89 91 
3 80 90 92 
3 81 91 93 
3 82 92 94 
3 84 94 95 
3 86 95 97 
3 96 97 107 
3 87 88 98 
3 87 89 99 
3 88 90 100 
3 89 91 101 
3 90 92 102 
3 91 93 103 
3 92 94 104 
3 94 95 105 
3 95 97 106 
3 97 107 108 
3 87 98 99 
3 88 98 100 
3 89 99 101 
3 90 100 102 
3 91 101 103 
3 92 102 104 
3 94 104 105 
3 95 105 106 
3 97 106 108 
3 107 108 118 
3 98 99 109 
3 98 100 110 
3 99 101 111 
3 100 102 112 
3 101 103 113 
3 102 104 114 
3 104 105 115 
3 105 106 116 
3 106 108 117 
3 108 118 119 
3 98 109 110 
3 99 109 111 
3 100 110 112 
3 101 111 113 
3 102 112 114 
3 104 114 115 
3 105 115 116 
3 106 116 117 
3 108 117 119 
3 118 119 129 
3 109 110 120 
3 109 111 121 
3 110 112 122 
3 111 113 123 
3 112 114 124 
3 114 115 125 
3 115 116 126 
3 116 117 127 
3 117 119 128 
3 119 129 130 
3 109 120 121 
3 110 120 122 
3 111 121 123 
3 112 122 124 
3 114 124 125 
3 115 125 126 
3 116 126 127 
3 117 127 128 
3 119 128 130 
3 129 130 140 
3 120 121 131 
3 120 122 132 
3 121 123 133 
3 122 124 134 
3 124 125 135 
3 125 126 136 
3 126 127 137 
3 127 128 138 
3 128 130 139 
3 130 140 141 
3 120 131 132 
3 121 131 133 
3 122 132 134 
3 124 134 135 
3 125 135 136 
3 126 136 137 
3 127 137 138 
3 128 138 139 
3 130 139 141 
3 140 141 151 
3 131 132 142 
3 131 133 143 
3 132 134 144 
3 134 135 145 
3 135 136 146 
3 136 137 147 
3 137 138 148 
3 138 139 149 
3 139 141 150 
3 141 151 152 
3 131 142 143 
3 132 142 144 
3 134 144 145 
3 135 145 146 
3 136 146 147 
3 137 147 148 
3 138 148 149 
3 139 149 150 
3 141 150 152 
3 151 152 162 
3 142 143 153 
3 142 144 154 
3 144 145 155 
3 145 146 156 
3 146 147 157 
3 147 148 158 
3 148 149 159 
3 149 150 160 
3 150 152 161 
3 152 162 163 
3 142 153 154 
3 144 154 155 
3 145 155 156 
3 146 156 157 
3 147 157 158 
3 148 158 159 
3 149 159 160 
3 150 160 161 
3 152 161 163 
3 162 163 173 
3 153 154 164 
3 154 155 165 
3 155 156 166 
3 156 157 167 
3 157 158 168 
3 158 159 169 
3 159 160 170 
3 160 161 171 
3 161 163 172 
3 163 173 174 
3 154 164 165 
3 155 165 166 
3 156 166 167 
3 157 167 168 
3 158 168 169 
3 159 169 170 
3 160 170 171 
3 161 171 172 
3 163 172 174 
3 173 174 184 
3 164 165 175 
3 165 166 176 
3 166 167 177 
3 167 168 178 
3 168 169 179 
3 169 170 180 
3 170 171 181 
3 171 172 182 
3 172 174 183 
3 174 184 185 
3 165 175 176 
3 166 176 177 
3 167 177 178 
3 168 178 179 
3 169 179 180 
3 170 180 181 
3 171 181 182 
3 172 182 183 
3 174 183 185 
3 184 185 195 
3 175 176 186 
3 176 177 187 
3 177 178 188 
3 178 179 189 
3 179 180 190 
3 180 181 191 
3 181 182 192 
3 182 183 193 
3 183 185 194 
3 185 195 196 
3 176 186 187 
3 177 187 188 
3 178 188 189 
3 179 189 190 
3 180 190 191 
3 181 191 192 
3 182 192 193 
3 183 193 194 
3 185 194 196 
3 186 187 197 
3 187 188 198 
3 188 189 199 
3 189 190 200 
3 190 191 201 
3 191 192 202 
3 192 193 203 
3 193 194 204 
3 194 196 205 
3 187 197 198 
3 188 198 199 
3 189 199 200 
3 190 200 201 
3 191 201 202 
3 192 202 203 
3 193 203 204 
3 194 204 205 
3 197 198 206 
3 198 199 207 
3 199 200 208 
3 200 201 209 
3 201 202 210 
3 202 203 211 
3 203 204 212 
3 204 205 213 
3 198 206 207 
3 199 207 208 
3 200 208 209 
3 201 209 210 
3 202 210 211 
3 203 211 212 
3 204 212 213 
3 206 207 214 
3 207 208 215 
3 208 209 216 
3 209 210 217 
3 210 211 218 
3 211 212 219 
3 212 213 220 
3 207 214 215 
3 208 215 216 
3 209 216 217 
3 210 217 218 
3 211 218 219 
3 212 219 220 
3 214 215 221 
3 215 216 222 
3 216 217 223 
3 217 218 224 
3 218 219 225 
3 219 220 226 
3 215 221 222 
3 216 222 223 
3 217 223 224 
3 218 224 225 
3 219 225 226 
3 221 222 227 
3 222 223 228 
3 223 224 229 
3 224 225 230 
3 225 226 231 
3 222 227 228 
3 223 228 229 
3 224 229 230 
3 225 230 231 
3 227 228 232 
3 228 229 233 
3 229 230 234 
3 230 231 235 
3 228 232 233 
3 229 233 234 
3 230 234 235 
3 232 233 236 
3 233 234 237 
3 234 235 238 
3 233 236 237 
3 234 237 238 
3 236 237 239 
3 237 238 240 
3 237 239 240 
3 239 240 241 
