ply
format ascii 1.0
element vertex 242
property float x
property float y
property float z
element face 420
property list uchar int vertex_index
end_header
80 85 60.8176
80 90 60.7558
90 85 60.7156
90 90 60.8007
70 85 60.8856
70 90 60.0922
80 95 60.4622
90 95 60.7065
100 90 60.3157
100 85 60.446
90 80 60.8693
80 80 60.6004
70 80 60.1312
100 95 60.5147
100 80 60.2155
70 95 60.1622
60 85 60.4885
60 90 60.464
90 100 60.7417
80 100 60.9514
100 100 60.8815
90 75 60.7297
100 75 60.9894
80 75 60.506
60 80 60.2521
70 75 60.4103
60 75 60.5649
60 95 60.9611
70 100 60.0711
50 85 60.2399
50 80 60.9379
50 90 60.1809
90 105 60.0191
80 105 60.6327
100 105 60.4397
90 70 60.44
80 70 60.4713
100 70 60.4503
70 70 60.9475
60 100 60.126
70 105 60.3653
50 75 60.7098
60 70 60.1418
50 95 60.3175
60 105 60.1998
40 85 60.5717
40 80 60.1537
40 90 60.8024
90 65 60.8766
80 65 60.8609
100 65 60.1392
50 70 60.0269
70 65 60.142
50 100 60.887
50 105 60.6521
40 75 60.1783
40 95 60.0331
60 65 60.4088
40 70 60.2872
30 85 60.6885
30 90 60.8682
30 80 60.0159
80 60 60.2501
90 60 60.5767
100 60 60.5439
50 65 60.4143
70 60 60.4265
40 100 60.5344
40 105 60.4985
30 75 60.1254
30 95 60.6295
60 60 60.9833
30 70 60.8278
40 65 60.4679
20 85 60.5045
20 80 60.9047
20 90 60.5163
20 75 60.0606
30 100 60.7362
90 55 60.414
80 55 60.9089
100 55 60.89
50 60 60.003
70 55 60.9017
30 105 60.7254
30 65 60.7702
20 95 60.319
20 70 60.9092
20 100 60.9866
40 60 60.5373
60 55 60.1482
30 60 60.7615
10 85 60.3653
10 90 60.247
10 80 60.991
10 95 60.9826
10 75 60.7564
20 105 60.494
90 50 60.1034
80 50 60.6796
100 50 60.8659
50 55 60.2746
70 50 60.0284
20 65 60.8977
10 100 60.7227
10 70 60.6326
40 55 60.4154
60 50 60.5561
20 60 60.4865
30 55 60.0501
0 85 60.0077
0 80 60.6711
0 90 60.3834
0 75 60.5297
10 105 60.7534
0 95 60.0668
0 70 60.0535
10 65 60.3282
80 45 60.2152
90 45 60.5144
100 45 60.9166
50 50 60.091
70 45 60.2033
0 100 60.4175
0 105 60.6868
40 50 60.2693
60 45 60.9554
10 60 60.7361
20 55 60.1665
30 50 60.941
0 65 60.0346
80 40 60.6516
90 40 60.5374
100 40 60.1996
50 45 60.1304
70 40 60.3893
40 45 60.8415
60 40 60.5901
10 55 60.0475
0 60 60.831
20 50 60.3593
30 45 60.4644
80 35 60.9317
70 35 60.4764
90 35 60.2893
100 35 60.682
50 40 60.7147
0 55 60.5194
10 50 60.2625
20 45 60.2749
40 40 60.4121
60 35 60.8456
10 45 60.7622
30 40 60.5297
80 30 60.8089
70 30 60.2478
90 30 60.8513
100 30 60.6677
50 35 60.2128
0 50 60.3835
20 40 60.2378
40 35 60.846
60 30 60.5872
0 45 60.9347
10 40 60.9103
30 35 60.9138
80 25 60.4523
70 25 60.8031
90 25 60.9544
100 25 60.4889
50 30 60.1598
0 40 60.6793
20 35 60.4777
10 35 60.7012
60 25 60.1475
40 30 60.5911
50 25 60.842
0 35 60.6789
30 30 60.2771
20 30 60.7665
80 20 60.3495
90 20 60.9871
70 20 60.6216
100 20 60.7134
10 30 60.416
60 20 60.4997
40 25 60.5133
50 20 60.6248
0 30 60.047
30 25 60.3841
20 25 60.4364
80 15 60.4553
90 15 60.7022
70 15 60.6513
100 15 60.0652
40 20 60.351
10 25 60.6539
60 15 60.3877
30 20 60.5007
50 15 60.8907
0 25 60.219
20 20 60.2727
80 10 60.7832
70 10 60.1267
90 10 60.689
60 10 60.3858
100 10 60.4633
40 15 60.3063
10 20 60.092
50 10 60.5546
30 15 60.0737
0 20 60.5328
20 15 60.8847
80 5 60.1351
90 5 60.8247
70 5 60.6293
60 5 60.6813
50 5 60.7483
100 5 60.525
40 10 60.2332
30 10 60.9478
10 15 60.5269
40 5 60.8886
0 15 60.4587
20 10 60.6316
90 0 60.4393
80 0 60.2531
70 0 60.3192
60 0 60.1503
50 0 60.9554
100 0 60.886
30 5 60.0907
10 10 60.8462
0 10 60.7556
40 0 60.9995
20 5 60.0727
30 0 60.2661
10 5 60.9304
0 5 60.1315
20 0 60.6515
10 0 60.589
0 0 60
3 0 2 1 
3 3 1 2 
3 0 1 4 
3 1 3 7 
3 3 2 9 
3 2 0 10 
3 0 4 11 
3 1 4 5 
3 1 7 6 
3 3 7 13 
3 3 9 8 
3 2 9 14 
3 2 10 14 
3 0 10 11 
3 4 11 12 
3 1 5 6 
3 4 5 16 
3 7 6 18 
3 3 13 8 
3 7 13 18 
3 10 14 21 
3 10 11 23 
3 4 12 24 
3 11 12 23 
3 5 6 15 
3 4 16 24 
3 5 16 17 
3 6 18 19 
3 13 18 20 
3 10 21 23 
3 14 21 22 
3 12 24 25 
3 12 23 25 
3 5 15 17 
3 6 15 28 
3 16 24 29 
3 16 17 29 
3 6 19 28 
3 18 19 33 
3 18 20 34 
3 21 23 35 
3 21 22 35 
3 24 25 26 
3 23 25 38 
3 15 17 27 
3 15 28 39 
3 24 29 30 
3 17 29 31 
3 19 28 40 
3 18 33 32 
3 19 33 40 
3 18 34 32 
3 23 35 36 
3 22 35 37 
3 24 26 41 
3 25 26 38 
3 23 38 36 
3 15 27 39 
3 17 27 31 
3 28 39 44 
3 24 30 41 
3 29 30 45 
3 29 31 47 
3 28 40 44 
3 35 36 49 
3 35 37 50 
3 26 41 42 
3 26 38 42 
3 38 36 49 
3 27 39 53 
3 27 31 43 
3 39 44 54 
3 30 41 55 
3 29 45 47 
3 30 45 46 
3 31 47 43 
3 35 49 48 
3 35 50 48 
3 41 42 51 
3 38 42 52 
3 38 49 52 
3 27 53 43 
3 39 53 54 
3 30 55 46 
3 41 55 51 
3 45 47 59 
3 45 46 61 
3 47 43 56 
3 49 48 63 
3 50 48 64 
3 42 51 57 
3 42 52 57 
3 49 52 62 
3 53 43 67 
3 53 54 68 
3 55 46 69 
3 55 51 58 
3 45 59 61 
3 47 59 60 
3 46 61 69 
3 47 56 70 
3 43 56 67 
3 49 63 62 
3 48 63 64 
3 51 57 65 
3 52 57 66 
3 52 62 66 
3 53 67 68 
3 55 69 58 
3 51 58 73 
3 59 61 74 
3 47 60 70 
3 59 60 76 
3 61 69 77 
3 56 70 78 
3 56 67 78 
3 63 62 79 
3 63 64 79 
3 51 65 73 
3 57 65 71 
3 57 66 71 
3 62 66 83 
3 67 68 84 
3 69 58 72 
3 58 73 85 
3 59 74 76 
3 61 74 75 
3 60 70 86 
3 60 76 86 
3 61 77 75 
3 69 77 72 
3 70 78 88 
3 67 78 84 
3 62 79 80 
3 64 79 81 
3 65 73 89 
3 65 71 82 
3 66 71 83 
3 62 83 80 
3 58 72 85 
3 73 85 89 
3 74 76 92 
3 74 75 94 
3 70 86 88 
3 76 86 93 
3 77 75 96 
3 77 72 87 
3 78 88 84 
3 79 80 99 
3 79 81 100 
3 65 89 82 
3 71 82 90 
3 71 83 90 
3 83 80 99 
3 72 85 103 
3 85 89 91 
3 74 92 94 
3 76 92 93 
3 75 94 96 
3 86 88 104 
3 86 93 95 
3 77 96 105 
3 77 87 105 
3 72 87 103 
3 88 84 97 
3 79 99 98 
3 79 100 98 
3 89 82 106 
3 82 90 101 
3 83 90 102 
3 83 99 102 
3 85 103 91 
3 89 91 106 
3 92 94 111 
3 92 93 110 
3 94 96 113 
3 86 104 95 
3 88 104 114 
3 93 95 112 
3 96 105 113 
3 87 105 103 
3 88 97 114 
3 99 98 118 
3 100 98 120 
3 82 106 101 
3 90 101 107 
3 90 102 107 
3 99 102 118 
3 103 91 108 
3 91 106 109 
3 92 111 110 
3 94 111 113 
3 93 110 112 
3 104 95 123 
3 104 114 124 
3 95 112 115 
3 105 113 116 
3 105 103 117 
3 98 118 119 
3 98 120 119 
3 106 101 125 
3 101 107 121 
3 102 107 122 
3 102 118 122 
3 103 108 117 
3 91 108 109 
3 106 109 125 
3 104 123 124 
3 95 123 115 
3 105 116 117 
3 118 119 131 
3 120 119 132 
3 101 125 121 
3 107 121 134 
3 107 122 126 
3 118 122 135 
3 108 117 127 
3 108 109 128 
3 109 125 129 
3 116 117 130 
3 118 131 135 
3 119 131 132 
3 120 132 133 
3 125 121 134 
3 107 134 126 
3 122 126 135 
3 108 127 128 
3 117 127 139 
3 109 128 140 
3 109 129 140 
3 125 129 136 
3 117 130 139 
3 131 135 142 
3 131 132 142 
3 132 133 144 
3 125 134 136 
3 134 126 146 
3 126 135 137 
3 127 128 138 
3 127 139 147 
3 128 140 148 
3 129 140 149 
3 129 136 141 
3 135 142 143 
3 132 142 144 
3 133 144 145 
3 134 136 146 
3 126 146 137 
3 135 137 143 
3 127 138 147 
3 128 138 148 
3 140 148 149 
3 129 149 141 
3 136 141 150 
3 142 143 154 
3 142 144 154 
3 144 145 156 
3 136 146 150 
3 146 137 158 
3 137 143 151 
3 138 147 159 
3 138 148 159 
3 148 149 152 
3 149 141 160 
3 141 150 153 
3 143 154 155 
3 144 154 156 
3 145 156 157 
3 146 150 158 
3 137 158 151 
3 143 151 162 
3 148 159 152 
3 149 152 164 
3 149 160 164 
3 141 160 153 
3 150 153 165 
3 143 155 162 
3 154 155 166 
3 154 156 168 
3 156 157 168 
3 150 158 161 
3 158 151 170 
3 151 162 170 
3 159 152 163 
3 152 164 163 
3 160 164 173 
3 160 153 172 
3 150 165 161 
3 153 165 172 
3 155 162 174 
3 154 166 168 
3 155 166 167 
3 157 168 169 
3 158 161 170 
3 162 170 174 
3 164 163 171 
3 160 173 172 
3 164 173 171 
3 165 161 175 
3 165 172 179 
3 155 174 167 
3 166 168 180 
3 166 167 180 
3 168 169 181 
3 161 170 175 
3 170 174 176 
3 173 172 179 
3 173 171 177 
3 165 175 178 
3 165 179 178 
3 174 167 185 
3 168 180 181 
3 167 180 182 
3 169 181 183 
3 170 175 186 
3 170 176 186 
3 174 176 185 
3 173 179 184 
3 173 177 184 
3 175 178 186 
3 179 178 190 
3 167 185 182 
3 180 181 191 
3 180 182 193 
3 181 183 192 
3 176 186 195 
3 176 185 187 
3 179 184 190 
3 177 184 188 
3 178 186 189 
3 178 190 189 
3 185 182 197 
3 180 191 193 
3 181 191 192 
3 182 193 197 
3 183 192 194 
3 176 195 187 
3 186 195 189 
3 185 187 197 
3 184 190 196 
3 184 188 196 
3 190 189 198 
3 191 193 202 
3 191 192 204 
3 193 197 205 
3 192 194 204 
3 195 187 207 
3 195 189 198 
3 187 197 199 
3 190 196 201 
3 188 196 200 
3 190 198 201 
3 191 202 204 
3 193 202 203 
3 193 205 203 
3 197 205 209 
3 194 204 206 
3 195 207 210 
3 187 207 199 
3 195 198 210 
3 197 199 209 
3 196 201 208 
3 196 200 211 
3 198 201 210 
3 202 204 214 
3 202 203 213 
3 205 203 216 
3 205 209 216 
3 204 206 214 
3 207 210 219 
3 207 199 219 
3 199 209 219 
3 196 208 211 
3 201 208 221 
3 201 210 212 
3 202 214 213 
3 203 213 215 
3 203 216 215 
3 209 216 217 
3 206 214 218 
3 210 219 220 
3 209 219 217 
3 208 211 223 
3 201 221 212 
3 208 221 223 
3 210 212 220 
3 214 213 225 
3 213 215 226 
3 216 215 227 
3 216 217 229 
3 214 218 230 
3 219 220 222 
3 219 217 222 
3 221 212 232 
3 221 223 233 
3 212 220 224 
3 214 225 230 
3 213 225 226 
3 215 226 227 
3 216 227 228 
3 216 229 228 
3 217 229 234 
3 220 222 231 
3 217 222 234 
3 221 232 233 
3 212 232 224 
3 220 224 231 
3 222 231 234 
3 232 233 237 
3 232 224 237 
3 224 231 235 
3 231 234 236 
3 233 237 238 
3 224 237 235 
3 231 235 236 
3 237 238 240 
3 237 235 240 
3 235 236 239 
3 238 240 241 
3 235 240 239 
