ply
format ascii 1.0
element vertex 210
property float x
property float y
property float z
element face 360
property list uchar int vertex_index
end_header
20 25 77.9811
20 30 77.696
30 25 77.9811
30 30 77.696
10 25 72.1688
10 30 71.8836
20 35 76.302
30 35 76.302
40 30 71.8836
40 25 72.1688
30 20 77.1321
20 20 77.1321
10 20 71.3197
10 35 70.4897
40 20 71.3197
0 25 62.7642
0 30 62.4791
40 35 70.4897
20 40 73.9231
30 40 73.9231
50 25 62.7642
50 30 62.4791
30 15 75.2243
20 15 75.2243
0 20 61.9152
10 15 69.412
10 40 68.1108
0 35 61.0851
50 20 61.9152
40 15 69.412
40 40 68.1108
50 35 61.0851
20 45 70.7706
30 45 70.7706
60 25 53.3596
60 30 53.0745
30 10 72.4274
20 10 72.4274
0 15 60.0074
10 10 66.6151
0 40 58.7062
10 45 64.9583
60 20 52.5106
50 15 60.0074
40 10 66.6151
50 40 58.7062
40 45 64.9583
60 35 51.6806
20 50 67.1246
30 50 67.1246
70 25 47.5473
70 30 47.2622
30 5 68.9898
20 5 68.9898
0 10 57.2105
10 5 63.1774
0 45 55.5537
10 50 61.3123
60 15 50.6029
70 20 46.6983
50 10 57.2105
40 5 63.1774
50 45 55.5537
60 40 49.3016
40 50 61.3123
70 35 45.8682
20 55 63.3092
30 55 63.3092
80 25 47.5473
80 30 47.2622
30 0 65.2169
20 0 65.2169
0 5 53.7729
10 0 59.4046
0 50 51.9077
10 55 57.4968
70 15 44.7905
60 10 47.8059
80 20 46.6983
50 5 53.7729
40 0 59.4046
60 45 46.1491
50 50 51.9077
70 40 43.4893
40 55 57.4968
80 35 45.8682
20 60 59.6632
30 60 59.6632
90 25 53.3596
90 30 53.0745
0 0 50
0 55 48.0923
10 60 53.8509
70 10 41.9936
80 15 44.7905
60 5 44.3683
90 20 52.5106
50 0 50
90 35 51.6806
60 50 42.5032
70 45 40.3368
50 55 48.0923
80 40 43.4893
40 60 53.8509
20 65 56.5107
30 65 56.5107
90 15 50.6029
0 60 44.4463
10 65 50.6984
90 40 49.3016
80 10 41.9936
70 5 38.556
60 0 40.5954
70 50 36.6908
60 55 38.6877
80 45 40.3368
50 60 44.4463
40 65 50.6984
20 70 54.1318
30 70 54.1318
90 10 47.8059
0 65 41.2938
10 70 48.3194
90 45 46.1491
80 5 38.556
70 0 34.7831
70 55 32.8754
80 50 36.6908
60 60 35.0417
50 65 41.2938
40 70 48.3194
20 75 52.7378
30 75 52.7378
90 5 44.3683
80 0 34.7831
0 70 38.9149
10 75 46.9255
90 50 42.5032
90 0 40.5954
80 55 32.8754
70 60 29.2294
60 65 31.8892
50 70 38.9149
40 75 46.9255
20 80 52.4527
30 80 52.4527
0 75 37.5209
10 80 46.6404
90 55 38.6877
0 80 37.2358
80 60 29.2294
70 65 26.0769
60 70 29.5103
50 75 37.5209
40 80 46.6404
20 85 53.3017
10 85 47.4894
30 85 53.3017
90 60 35.0417
80 65 26.0769
50 80 37.2358
0 85 38.0848
40 85 47.4894
90 65 31.8892
70 70 23.698
60 75 28.1164
10 90 49.3971
20 90 55.2095
0 90 39.9926
50 85 38.0848
30 90 55.2095
80 70 23.698
60 80 27.8312
40 90 49.3971
50 90 39.9926
90 70 29.5103
70 75 22.304
60 85 28.6803
10 95 52.1941
0 95 42.7895
20 95 58.0064
60 90 30.588
30 95 58.0064
80 75 22.304
70 80 22.0189
40 95 52.1941
50 95 42.7895
60 95 33.3849
90 75 28.1164
70 85 22.8679
70 90 24.7757
0 100 46.2271
10 100 55.6317
20 100 61.444
70 95 27.5726
30 100 61.444
80 80 22.0189
50 100 46.2271
40 100 55.6317
60 100 36.8226
70 100 31.0102
90 80 27.8312
80 85 22.8679
80 90 24.7757
80 95 27.5726
80 100 31.0102
90 85 28.6803
90 90 30.588
90 95 33.3849
90 100 36.8226
3 0 2 1 
3 3 1 2 
3 0 1 4 
3 1 3 6 
3 3 2 9 
3 2 0 10 
3 0 4 11 
3 1 4 5 
3 1 6 5 
3 3 6 7 
3 3 9 8 
3 2 9 10 
3 0 10 11 
3 4 11 12 
3 4 5 15 
3 6 5 13 
3 3 7 8 
3 6 7 18 
3 9 8 20 
3 9 10 14 
3 10 11 22 
3 4 12 15 
3 11 12 23 
3 5 15 16 
3 6 13 18 
3 5 13 16 
3 7 8 17 
3 7 18 19 
3 9 20 14 
3 8 20 21 
3 10 14 22 
3 11 22 23 
3 12 15 24 
3 12 23 25 
3 13 18 26 
3 13 16 27 
3 7 17 19 
3 8 17 21 
3 18 19 32 
3 20 14 28 
3 20 21 34 
3 14 22 29 
3 22 23 36 
3 12 24 25 
3 23 25 37 
3 13 26 27 
3 18 26 32 
3 17 19 30 
3 17 21 31 
3 19 32 33 
3 20 28 34 
3 14 28 29 
3 21 34 35 
3 22 29 36 
3 23 36 37 
3 24 25 38 
3 25 37 39 
3 26 27 40 
3 26 32 41 
3 17 30 31 
3 19 30 33 
3 21 31 35 
3 32 33 48 
3 28 34 42 
3 28 29 43 
3 34 35 50 
3 29 36 44 
3 36 37 52 
3 25 38 39 
3 37 39 53 
3 26 40 41 
3 32 41 48 
3 30 31 45 
3 30 33 46 
3 31 35 47 
3 33 48 49 
3 28 42 43 
3 34 42 50 
3 29 43 44 
3 35 50 51 
3 36 44 52 
3 37 52 53 
3 38 39 54 
3 39 53 55 
3 40 41 56 
3 41 48 57 
3 30 45 46 
3 31 45 47 
3 33 46 49 
3 35 47 51 
3 48 49 66 
3 42 43 58 
3 42 50 59 
3 43 44 60 
3 50 51 68 
3 44 52 61 
3 52 53 70 
3 39 54 55 
3 53 55 71 
3 41 56 57 
3 48 57 66 
3 45 46 62 
3 45 47 63 
3 46 49 64 
3 47 51 65 
3 49 66 67 
3 42 58 59 
3 43 58 60 
3 50 59 68 
3 44 60 61 
3 51 68 69 
3 52 61 70 
3 53 70 71 
3 54 55 72 
3 55 71 73 
3 56 57 74 
3 57 66 75 
3 45 62 63 
3 46 62 64 
3 47 63 65 
3 49 64 67 
3 51 65 69 
3 66 67 86 
3 58 59 76 
3 58 60 77 
3 59 68 78 
3 60 61 79 
3 68 69 89 
3 61 70 80 
3 55 72 73 
3 57 74 75 
3 66 75 86 
3 62 63 81 
3 62 64 82 
3 63 65 83 
3 64 67 84 
3 65 69 85 
3 67 86 87 
3 58 76 77 
3 59 76 78 
3 60 77 79 
3 68 78 96 
3 61 79 80 
3 68 89 88 
3 69 89 98 
3 72 73 90 
3 74 75 91 
3 75 86 92 
3 62 81 82 
3 63 81 83 
3 64 82 84 
3 65 83 85 
3 67 84 87 
3 69 85 98 
3 86 87 104 
3 76 77 93 
3 76 78 94 
3 77 79 95 
3 68 96 88 
3 78 96 106 
3 79 80 97 
3 75 91 92 
3 86 92 104 
3 81 82 99 
3 81 83 100 
3 82 84 101 
3 83 85 102 
3 84 87 103 
3 85 98 109 
3 87 104 105 
3 76 93 94 
3 77 93 95 
3 78 94 106 
3 79 95 97 
3 91 92 107 
3 92 104 108 
3 81 99 100 
3 82 99 101 
3 83 100 102 
3 84 101 103 
3 85 102 109 
3 87 103 105 
3 104 105 118 
3 93 94 110 
3 93 95 111 
3 94 106 120 
3 95 97 112 
3 92 107 108 
3 104 108 118 
3 99 100 113 
3 99 101 114 
3 100 102 115 
3 101 103 116 
3 102 109 123 
3 103 105 117 
3 105 118 119 
3 93 110 124 
3 94 110 120 
3 93 111 124 
3 95 111 112 
3 107 108 121 
3 108 118 122 
3 99 113 114 
3 100 113 115 
3 101 114 116 
3 102 115 123 
3 103 116 117 
3 105 117 119 
3 118 119 131 
3 110 124 133 
3 110 120 133 
3 111 124 125 
3 111 112 125 
3 108 121 122 
3 118 122 131 
3 113 114 126 
3 113 115 127 
3 114 116 128 
3 115 123 137 
3 116 117 129 
3 117 119 130 
3 119 131 132 
3 124 133 138 
3 124 125 134 
3 121 122 135 
3 122 131 136 
3 113 126 127 
3 114 126 128 
3 115 127 137 
3 116 128 129 
3 117 129 130 
3 119 130 132 
3 131 132 144 
3 124 138 134 
3 122 135 136 
3 131 136 147 
3 126 127 139 
3 126 128 140 
3 127 137 148 
3 128 129 141 
3 129 130 142 
3 130 132 143 
3 131 144 147 
3 132 144 145 
3 135 136 146 
3 136 147 146 
3 126 139 150 
3 127 139 148 
3 126 140 150 
3 128 140 141 
3 129 141 142 
3 130 142 143 
3 132 143 154 
3 144 147 156 
3 132 145 154 
3 144 145 155 
3 147 146 149 
3 139 150 158 
3 139 148 158 
3 140 150 151 
3 140 141 151 
3 141 142 152 
3 142 143 153 
3 143 154 153 
3 144 156 155 
3 147 156 161 
3 145 154 162 
3 145 155 157 
3 147 149 161 
3 150 158 163 
3 150 151 159 
3 141 151 152 
3 142 152 153 
3 154 153 160 
3 156 155 166 
3 156 161 168 
3 145 162 157 
3 154 162 169 
3 155 157 167 
3 150 163 159 
3 151 159 164 
3 151 152 164 
3 152 153 165 
3 154 160 169 
3 153 160 165 
3 156 166 168 
3 155 166 167 
3 162 157 173 
3 162 169 174 
3 157 167 170 
3 163 159 175 
3 159 164 171 
3 152 164 165 
3 160 169 177 
3 160 165 172 
3 166 168 179 
3 166 167 178 
3 162 173 174 
3 157 173 170 
3 169 174 181 
3 167 170 180 
3 159 175 171 
3 164 171 176 
3 164 165 176 
3 160 177 172 
3 169 177 181 
3 165 172 176 
3 166 179 178 
3 167 178 180 
3 173 174 186 
3 173 170 185 
3 174 181 187 
3 170 180 182 
3 175 171 188 
3 171 176 183 
3 177 172 189 
3 177 181 190 
3 172 176 184 
3 179 178 191 
3 178 180 192 
3 173 186 185 
3 174 186 187 
3 170 185 182 
3 181 187 194 
3 180 182 193 
3 171 188 183 
3 176 183 196 
3 177 189 190 
3 172 189 184 
3 181 190 194 
3 176 184 196 
3 178 191 192 
3 180 192 193 
3 186 185 197 
3 186 187 199 
3 185 182 198 
3 187 194 200 
3 182 193 195 
3 188 183 201 
3 183 196 201 
3 189 190 202 
3 189 184 202 
3 190 194 203 
3 184 196 202 
3 186 197 199 
3 185 197 198 
3 187 199 200 
3 182 198 195 
3 194 200 204 
3 196 201 202 
3 190 202 203 
3 194 203 204 
3 200 204 205 
3 201 202 206 
3 202 203 206 
3 203 204 207 
3 204 205 208 
3 203 206 207 
3 204 207 208 
3 205 208 209 
