ply
format ascii 1.0
element vertex 42
property float x
property float y
property float z
element face 80
property list uchar int vertex_index
end_header
50 50 30
50 55 30.6351
60 50 32.6795
60 55 33.4169
40 50 32.6795
50 50 70
40 55 33.4169
50 55 69.3649
50 60 32.6795
60 60 35.8579
60 55 66.5831
60 50 67.3205
60 45 33.4169
50 45 30.6351
40 45 33.4169
40 50 67.3205
40 60 35.8579
50 60 67.3205
50 45 69.3649
40 45 66.5831
40 55 66.5831
60 60 64.1421
50 65 36.7712
60 65 41.3397
60 45 66.5831
50 40 32.6795
60 40 35.8579
40 40 35.8579
40 65 41.3397
40 60 64.1421
50 65 63.2288
50 40 67.3205
40 40 64.1421
60 65 58.6603
60 40 64.1421
50 35 36.7712
60 35 41.3397
40 35 41.3397
40 65 58.6603
50 35 63.2288
40 35 58.6603
60 35 58.6603
3 0 2 1 
3 3 1 2 
3 0 1 4 
3 1 3 8 
3 3 2 11 
3 11 3 10 
3 2 0 13 
3 0 4 14 
3 1 4 6 
3 1 8 6 
3 3 8 9 
3 11 10 7 
3 2 13 12 
3 0 13 14 
3 4 14 15 
3 15 14 19 
3 4 6 15 
3 15 6 20 
3 8 6 16 
3 3 9 10 
3 10 9 21 
3 8 9 22 
3 11 7 5 
3 10 7 17 
3 2 12 11 
3 11 12 24 
3 13 12 25 
3 13 14 25 
3 15 19 18 
3 8 16 22 
3 6 16 20 
3 20 16 29 
3 10 21 17 
3 9 22 23 
3 11 24 5 
3 12 25 26 
3 14 25 27 
3 19 18 31 
3 16 22 28 
3 21 17 30 
3 9 23 33 
3 33 9 21 
3 12 26 24 
3 24 26 34 
3 25 26 35 
3 14 27 19 
3 19 27 32 
3 25 27 35 
3 19 31 32 
3 16 28 38 
3 38 16 29 
3 21 30 33 
3 26 35 36 
3 27 35 37 
3 31 32 39 
3 26 36 41 
3 41 26 34 
3 27 37 40 
3 40 27 32 
3 32 39 40 
3 23 33 22 
3 33 22 30 
3 28 38 22 
3 38 22 30 
3 38 30 29 
3 30 29 17 
3 29 17 7 
3 29 7 20 
3 7 20 5 
3 20 5 15 
3 5 15 18 
3 5 18 24 
3 18 24 31 
3 24 31 34 
3 31 34 39 
3 34 39 41 
3 36 41 35 
3 41 35 39 
3 37 40 35 
3 40 35 39 
