ply
format ascii 1.0
element vertex 288
property float x
property float y
property float z
element face 216
property list uchar int vertex_index
end_header
0 0 100
25 0 100
25 26.25 100
0 26.25 100
0 0 125
25 0 125
25 26.25 125
0 26.25 125
0 0 125
25 0 125
25 26.25 125
0 26.25 125
0 0 150
25 0 150
25 26.25 150
0 26.25 150
0 26.25 100
25 26.25 100
25 52.5 100
0 52.5 100
0 26.25 125
25 26.25 125
25 52.5 125
0 52.5 125
0 26.25 125
25 26.25 125
25 52.5 125
0 52.5 125
0 26.25 150
25 26.25 150
25 52.5 150
0 52.5 150
25 0 100
50 0 100
50 26.25 100
25 26.25 100
25 0 125
50 0 125
50 26.25 125
25 26.25 125
25 0 125
50 0 125
50 26.25 125
25 26.25 125
25 0 150
50 0 150
50 26.25 150
25 26.25 150
25 26.25 100
50 26.25 100
50 52.5 100
25 52.5 100
25 26.25 125
50 26.25 125
50 52.5 125
25 52.5 125
25 26.25 125
50 26.25 125
50 52.5 125
25 52.5 125
25 26.25 150
50 26.25 150
50 52.5 150
25 52.5 150
0 0 150
50 0 150
50 52.5 150
0 52.5 150
0 0 200
50 0 200
50 52.5 200
0 52.5 200
0 52.5 100
25 52.5 100
25 78.75 100
0 78.75 100
0 52.5 125
25 52.5 125
25 78.75 125
0 78.75 125
0 52.5 125
25 52.5 125
25 78.75 125
0 78.75 125
0 52.5 150
25 52.5 150
25 78.75 150
0 78.75 150
0 78.75 100
25 78.75 100
25 105 100
0 105 100
0 78.75 125
25 78.75 125
25 105 125
0 105 125
0 78.75 125
25 78.75 125
25 105 125
0 105 125
0 78.75 150
25 78.75 150
25 105 150
0 105 150
25 52.5 100
50 52.5 100
50 78.75 100
25 78.75 100
25 52.5 125
50 52.5 125
50 78.75 125
25 78.75 125
25 52.5 125
50 52.5 125
50 78.75 125
25 78.75 125
25 52.5 150
50 52.5 150
50 78.75 150
25 78.75 150
25 78.75 100
50 78.75 100
50 105 100
25 105 100
25 78.75 125
50 78.75 125
50 105 125
25 105 125
25 78.75 125
50 78.75 125
50 105 125
25 105 125
25 78.75 150
50 78.75 150
50 105 150
25 105 150
0 52.5 150
50 52.5 150
50 105 150
0 105 150
0 52.5 200
50 52.5 200
50 105 200
0 105 200
50 0 100
75 0 100
75 26.25 100
50 26.25 100
50 0 125
75 0 125
75 26.25 125
50 26.25 125
50 0 125
75 0 125
75 26.25 125
50 26.25 125
50 0 150
75 0 150
75 26.25 150
50 26.25 150
50 26.25 100
75 26.25 100
75 52.5 100
50 52.5 100
50 26.25 125
75 26.25 125
75 52.5 125
50 52.5 125
50 26.25 125
75 26.25 125
75 52.5 125
50 52.5 125
50 26.25 150
75 26.25 150
75 52.5 150
50 52.5 150
75 0 100
100 0 100
100 26.25 100
75 26.25 100
75 0 125
100 0 125
100 26.25 125
75 26.25 125
75 0 125
100 0 125
100 26.25 125
75 26.25 125
75 0 150
100 0 150
100 26.25 150
75 26.25 150
75 26.25 100
100 26.25 100
100 52.5 100
75 52.5 100
75 26.25 125
100 26.25 125
100 52.5 125
75 52.5 125
75 26.25 125
100 26.25 125
100 52.5 125
75 52.5 125
75 26.25 150
100 26.25 150
100 52.5 150
75 52.5 150
50 0 150
100 0 150
100 52.5 150
50 52.5 150
50 0 200
100 0 200
100 52.5 200
50 52.5 200
50 52.5 100
75 52.5 100
75 78.75 100
50 78.75 100
50 52.5 125
75 52.5 125
75 78.75 125
50 78.75 125
50 52.5 125
75 52.5 125
75 78.75 125
50 78.75 125
50 52.5 150
75 52.5 150
75 78.75 150
50 78.75 150
50 78.75 100
75 78.75 100
75 105 100
50 105 100
50 78.75 125
75 78.75 125
75 105 125
50 105 125
50 78.75 125
75 78.75 125
75 105 125
50 105 125
50 78.75 150
75 78.75 150
75 105 150
50 105 150
75 52.5 100
100 52.5 100
100 78.75 100
75 78.75 100
75 52.5 125
100 52.5 125
100 78.75 125
75 78.75 125
75 52.5 125
100 52.5 125
100 78.75 125
75 78.75 125
75 52.5 150
100 52.5 150
100 78.75 150
75 78.75 150
75 78.75 100
100 78.75 100
100 105 100
75 105 100
75 78.75 125
100 78.75 125
100 105 125
75 105 125
75 78.75 125
100 78.75 125
100 105 125
75 105 125
75 78.75 150
100 78.75 150
100 105 150
75 105 150
50 52.5 150
100 52.5 150
100 105 150
50 105 150
50 52.5 200
100 52.5 200
100 105 200
50 105 200
4 0 1 2 3
4 7 6 5 4
4 0 4 5 1
4 1 5 6 2
4 2 6 7 3
4 3 7 4 0
4 8 9 10 11
4 15 14 13 12
4 8 12 13 9
4 9 13 14 10
4 10 14 15 11
4 11 15 12 8
4 16 17 18 19
4 23 22 21 20
4 16 20 21 17
4 17 21 22 18
4 18 22 23 19
4 19 23 20 16
4 24 25 26 27
4 31 30 29 28
4 24 28 29 25
4 25 29 30 26
4 26 30 31 27
4 27 31 28 24
4 32 33 34 35
4 39 38 37 36
4 32 36 37 33
4 33 37 38 34
4 34 38 39 35
4 35 39 36 32
4 40 41 42 43
4 47 46 45 44
4 40 44 45 41
4 41 45 46 42
4 42 46 47 43
4 43 47 44 40
4 48 49 50 51
4 55 54 53 52
4 48 52 53 49
4 49 53 54 50
4 50 54 55 51
4 51 55 52 48
4 56 57 58 59
4 63 62 61 60
4 56 60 61 57
4 57 61 62 58
4 58 62 63 59
4 59 63 60 56
4 64 65 66 67
4 71 70 69 68
4 64 68 69 65
4 65 69 70 66
4 66 70 71 67
4 67 71 68 64
4 72 73 74 75
4 79 78 77 76
4 72 76 77 73
4 73 77 78 74
4 74 78 79 75
4 75 79 76 72
4 80 81 82 83
4 87 86 85 84
4 80 84 85 81
4 81 85 86 82
4 82 86 87 83
4 83 87 84 80
4 88 89 90 91
4 95 94 93 92
4 88 92 93 89
4 89 93 94 90
4 90 94 95 91
4 91 95 92 88
4 96 97 98 99
4 103 102 101 100
4 96 100 101 97
4 97 101 102 98
4 98 102 103 99
4 99 103 100 96
4 104 105 106 107
4 111 110 109 108
4 104 108 109 105
4 105 109 110 106
4 106 110 111 107
4 107 111 108 104
4 112 113 114 115
4 119 118 117 116
4 112 116 117 113
4 113 117 118 114
4 114 118 119 115
4 115 119 116 112
4 120 121 122 123
4 127 126 125 124
4 120 124 125 121
4 121 125 126 122
4 122 126 127 123
4 123 127 124 120
4 128 129 130 131
4 135 134 133 132
4 128 132 133 129
4 129 133 134 130
4 130 134 135 131
4 131 135 132 128
4 136 137 138 139
4 143 142 141 140
4 136 140 141 137
4 137 141 142 138
4 138 142 143 139
4 139 143 140 136
4 144 145 146 147
4 151 150 149 148
4 144 148 149 145
4 145 149 150 146
4 146 150 151 147
4 147 151 148 144
4 152 153 154 155
4 159 158 157 156
4 152 156 157 153
4 153 157 158 154
4 154 158 159 155
4 155 159 156 152
4 160 161 162 163
4 167 166 165 164
4 160 164 165 161
4 161 165 166 162
4 162 166 167 163
4 163 167 164 160
4 168 169 170 171
4 175 174 173 172
4 168 172 173 169
4 169 173 174 170
4 170 174 175 171
4 171 175 172 168
4 176 177 178 179
4 183 182 181 180
4 176 180 181 177
4 177 181 182 178
4 178 182 183 179
4 179 183 180 176
4 184 185 186 187
4 191 190 189 188
4 184 188 189 185
4 185 189 190 186
4 186 190 191 187
4 187 191 188 184
4 192 193 194 195
4 199 198 197 196
4 192 196 197 193
4 193 197 198 194
4 194 198 199 195
4 195 199 196 192
4 200 201 202 203
4 207 206 205 204
4 200 204 205 201
4 201 205 206 202
4 202 206 207 203
4 203 207 204 200
4 208 209 210 211
4 215 214 213 212
4 208 212 213 209
4 209 213 214 210
4 210 214 215 211
4 211 215 212 208
4 216 217 218 219
4 223 222 221 220
4 216 220 221 217
4 217 221 222 218
4 218 222 223 219
4 219 223 220 216
4 224 225 226 227
4 231 230 229 228
4 224 228 229 225
4 225 229 230 226
4 226 230 231 227
4 227 231 228 224
4 232 233 234 235
4 239 238 237 236
4 232 236 237 233
4 233 237 238 234
4 234 238 239 235
4 235 239 236 232
4 240 241 242 243
4 247 246 245 244
4 240 244 245 241
4 241 245 246 242
4 242 246 247 243
4 243 247 244 240
4 248 249 250 251
4 255 254 253 252
4 248 252 253 249
4 249 253 254 250
4 250 254 255 251
4 251 255 252 248
4 256 257 258 259
4 263 262 261 260
4 256 260 261 257
4 257 261 262 258
4 258 262 263 259
4 259 263 260 256
4 264 265 266 267
4 271 270 269 268
4 264 268 269 265
4 265 269 270 266
4 266 270 271 267
4 267 271 268 264
4 272 273 274 275
4 279 278 277 276
4 272 276 277 273
4 273 277 278 274
4 274 278 279 275
4 275 279 276 272
4 280 281 282 283
4 287 286 285 284
4 280 284 285 281
4 281 285 286 282
4 282 286 287 283
4 283 287 284 280
