ply
format ascii 1.0
element vertex 210
property float x
property float y
property float z
element face 360
property list uchar int vertex_index
end_header
0 75 53.6585
0 80 53.9024
10 75 53.9024
10 80 54.1463
0 85 54.1463
10 85 54.3902
20 80 54.3902
20 75 54.1463
10 70 53.6585
0 70 53.4146
20 70 53.9024
20 85 54.6341
0 90 54.3902
10 90 54.6341
30 75 54.3902
30 80 54.6341
30 70 54.1463
10 65 53.4146
20 65 53.6585
0 65 53.1707
30 65 53.9024
20 90 54.878
30 85 54.878
0 95 54.6341
10 95 54.878
40 75 54.6341
40 70 54.3902
40 80 54.878
40 65 54.1463
20 60 53.4146
10 60 53.1707
30 60 53.6585
0 60 52.9268
40 60 53.9024
30 90 55.122
20 95 55.122
40 85 55.122
0 100 54.878
10 100 55.122
50 70 54.6341
50 75 54.878
50 65 54.3902
50 80 55.122
50 60 54.1463
20 55 53.1707
30 55 53.4146
10 55 52.9268
40 55 53.6585
0 55 52.6829
50 55 53.9024
30 95 55.3659
40 90 55.3659
20 100 55.3659
50 85 55.3659
60 70 54.878
60 65 54.6341
60 75 55.122
60 60 54.3902
60 80 55.3659
60 55 54.1463
30 50 53.1707
20 50 52.9268
40 50 53.4146
10 50 52.6829
50 50 53.6585
0 50 52.439
60 50 53.9024
40 95 55.6098
30 100 55.6098
50 90 55.6098
60 85 55.6098
70 65 54.878
70 70 55.122
70 60 54.6341
70 75 55.3659
70 55 54.3902
70 80 55.6098
70 50 54.1463
30 45 52.9268
40 45 53.1707
20 45 52.6829
50 45 53.4146
10 45 52.439
60 45 53.6585
0 45 52.1951
70 45 53.9024
40 100 55.8537
50 95 55.8537
60 90 55.8537
70 85 55.8537
80 65 55.122
80 60 54.878
80 70 55.3659
80 55 54.6341
80 75 55.6098
80 50 54.3902
80 80 55.8537
80 45 54.1463
40 40 52.9268
30 40 52.6829
50 40 53.1707
20 40 52.439
60 40 53.4146
10 40 52.1951
70 40 53.6585
0 40 51.9512
80 40 53.9024
50 100 56.0976
60 95 56.0976
70 90 56.0976
80 85 56.0976
90 60 55.122
90 65 55.3659
90 55 54.878
90 70 55.6098
90 50 54.6341
90 75 55.8537
90 45 54.3902
90 80 56.0976
90 40 54.1463
40 35 52.6829
50 35 52.9268
30 35 52.439
60 35 53.1707
20 35 52.1951
70 35 53.4146
10 35 51.9512
80 35 53.6585
0 35 51.7073
90 35 53.9024
60 100 56.3415
70 95 56.3415
80 90 56.3415
90 85 56.3415
50 30 52.6829
40 30 52.439
60 30 52.9268
30 30 52.1951
70 30 53.1707
20 30 51.9512
80 30 53.4146
10 30 51.7073
90 30 53.6585
0 30 51.4634
70 100 56.5854
80 95 56.5854
90 90 56.5854
50 25 52.439
60 25 52.6829
40 25 52.1951
70 25 52.9268
30 25 51.9512
80 25 53.1707
20 25 51.7073
90 25 53.4146
10 25 51.4634
0 25 51.2195
80 100 56.8293
90 95 56.8293
60 20 52.439
50 20 52.1951
70 20 52.6829
40 20 51.9512
80 20 52.9268
30 20 51.7073
90 20 53.1707
20 20 51.4634
10 20 51.2195
0 20 50.9756
90 100 57.0732
60 15 52.1951
70 15 52.439
50 15 51.9512
80 15 52.6829
40 15 51.7073
90 15 52.9268
30 15 51.4634
20 15 51.2195
10 15 50.9756
0 15 50.7317
70 10 52.1951
60 10 51.9512
80 10 52.439
50 10 51.7073
90 10 52.6829
40 10 51.4634
30 10 51.2195
20 10 50.9756
10 10 50.7317
0 10 50.4878
70 5 51.9512
80 5 52.1951
60 5 51.7073
90 5 52.439
50 5 51.4634
40 5 51.2195
30 5 50.9756
20 5 50.7317
10 5 50.4878
0 5 50.2439
80 0 51.9512
70 0 51.7073
90 0 52.1951
60 0 51.4634
50 0 51.2195
40 0 50.9756
30 0 50.7317
20 0 50.4878
10 0 50.2439
0 0 50
3 0 2 1 
3 3 1 2 
3 1 3 4 
3 3 2 7 
3 2 0 8 
3 3 4 5 
3 3 7 6 
3 2 7 10 
3 2 8 10 
3 0 8 9 
3 3 5 6 
3 4 5 12 
3 7 6 14 
3 7 10 16 
3 8 10 18 
3 8 9 17 
3 5 6 11 
3 5 12 13 
3 7 14 16 
3 6 14 15 
3 10 16 20 
3 8 18 17 
3 10 18 20 
3 9 17 19 
3 5 11 13 
3 6 11 15 
3 12 13 23 
3 14 16 26 
3 14 15 25 
3 16 20 28 
3 18 17 29 
3 18 20 31 
3 17 19 30 
3 11 13 21 
3 11 15 22 
3 13 23 24 
3 14 26 25 
3 16 26 28 
3 15 25 27 
3 20 28 33 
3 18 29 31 
3 17 29 30 
3 20 31 33 
3 19 30 32 
3 11 21 22 
3 13 21 24 
3 15 22 27 
3 23 24 37 
3 26 25 39 
3 26 28 41 
3 25 27 40 
3 28 33 43 
3 29 31 45 
3 29 30 44 
3 31 33 47 
3 30 32 46 
3 21 22 34 
3 21 24 35 
3 22 27 36 
3 24 37 38 
3 26 39 41 
3 25 39 40 
3 28 41 43 
3 27 40 42 
3 33 43 49 
3 29 45 44 
3 31 45 47 
3 30 44 46 
3 33 47 49 
3 32 46 48 
3 21 34 35 
3 22 34 36 
3 24 35 38 
3 27 36 42 
3 39 41 55 
3 39 40 54 
3 41 43 57 
3 40 42 56 
3 43 49 59 
3 45 44 60 
3 45 47 62 
3 44 46 61 
3 47 49 64 
3 46 48 63 
3 34 35 50 
3 34 36 51 
3 35 38 52 
3 36 42 53 
3 39 55 54 
3 41 55 57 
3 40 54 56 
3 43 57 59 
3 42 56 58 
3 49 59 66 
3 45 60 62 
3 44 60 61 
3 47 62 64 
3 46 61 63 
3 49 64 66 
3 48 63 65 
3 34 50 51 
3 35 50 52 
3 36 51 53 
3 42 53 58 
3 55 54 71 
3 55 57 73 
3 54 56 72 
3 57 59 75 
3 56 58 74 
3 59 66 77 
3 60 62 79 
3 60 61 78 
3 62 64 81 
3 61 63 80 
3 64 66 83 
3 63 65 82 
3 50 51 67 
3 50 52 68 
3 51 53 69 
3 53 58 70 
3 55 71 73 
3 54 71 72 
3 57 73 75 
3 56 72 74 
3 59 75 77 
3 58 74 76 
3 66 77 85 
3 60 79 78 
3 62 79 81 
3 61 78 80 
3 64 81 83 
3 63 80 82 
3 66 83 85 
3 65 82 84 
3 50 67 68 
3 51 67 69 
3 53 69 70 
3 58 70 76 
3 71 73 91 
3 71 72 90 
3 73 75 93 
3 72 74 92 
3 75 77 95 
3 74 76 94 
3 77 85 97 
3 79 78 98 
3 79 81 100 
3 78 80 99 
3 81 83 102 
3 80 82 101 
3 83 85 104 
3 82 84 103 
3 67 68 86 
3 67 69 87 
3 69 70 88 
3 70 76 89 
3 71 91 90 
3 73 91 93 
3 72 90 92 
3 75 93 95 
3 74 92 94 
3 77 95 97 
3 76 94 96 
3 85 97 106 
3 79 98 100 
3 78 98 99 
3 81 100 102 
3 80 99 101 
3 83 102 104 
3 82 101 103 
3 85 104 106 
3 84 103 105 
3 67 86 87 
3 69 87 88 
3 70 88 89 
3 76 89 96 
3 91 90 111 
3 91 93 113 
3 90 92 112 
3 93 95 115 
3 92 94 114 
3 95 97 117 
3 94 96 116 
3 97 106 119 
3 98 100 121 
3 98 99 120 
3 100 102 123 
3 99 101 122 
3 102 104 125 
3 101 103 124 
3 104 106 127 
3 103 105 126 
3 86 87 107 
3 87 88 108 
3 88 89 109 
3 89 96 110 
3 91 111 113 
3 90 111 112 
3 93 113 115 
3 92 112 114 
3 95 115 117 
3 94 114 116 
3 97 117 119 
3 96 116 118 
3 106 119 129 
3 98 121 120 
3 100 121 123 
3 99 120 122 
3 102 123 125 
3 101 122 124 
3 104 125 127 
3 103 124 126 
3 106 127 129 
3 105 126 128 
3 87 107 108 
3 88 108 109 
3 89 109 110 
3 96 110 118 
3 121 120 134 
3 121 123 136 
3 120 122 135 
3 123 125 138 
3 122 124 137 
3 125 127 140 
3 124 126 139 
3 127 129 142 
3 126 128 141 
3 107 108 130 
3 108 109 131 
3 109 110 132 
3 110 118 133 
3 121 134 136 
3 120 134 135 
3 123 136 138 
3 122 135 137 
3 125 138 140 
3 124 137 139 
3 127 140 142 
3 126 139 141 
3 128 141 143 
3 108 130 131 
3 109 131 132 
3 110 132 133 
3 134 136 148 
3 134 135 147 
3 136 138 150 
3 135 137 149 
3 138 140 152 
3 137 139 151 
3 140 142 154 
3 139 141 153 
3 141 143 155 
3 130 131 144 
3 131 132 145 
3 132 133 146 
3 134 148 147 
3 136 148 150 
3 135 147 149 
3 138 150 152 
3 137 149 151 
3 140 152 154 
3 139 151 153 
3 141 153 155 
3 143 155 156 
3 131 144 145 
3 132 145 146 
3 148 147 159 
3 148 150 161 
3 147 149 160 
3 150 152 163 
3 149 151 162 
3 152 154 165 
3 151 153 164 
3 153 155 166 
3 155 156 167 
3 144 145 157 
3 145 146 158 
3 148 159 161 
3 147 159 160 
3 150 161 163 
3 149 160 162 
3 152 163 165 
3 151 162 164 
3 153 164 166 
3 155 166 167 
3 156 167 168 
3 145 157 158 
3 159 161 171 
3 159 160 170 
3 161 163 173 
3 160 162 172 
3 163 165 175 
3 162 164 174 
3 164 166 176 
3 166 167 177 
3 167 168 178 
3 157 158 169 
3 159 171 170 
3 161 171 173 
3 160 170 172 
3 163 173 175 
3 162 172 174 
3 164 174 176 
3 166 176 177 
3 167 177 178 
3 168 178 179 
3 171 170 180 
3 171 173 182 
3 170 172 181 
3 173 175 184 
3 172 174 183 
3 174 176 185 
3 176 177 186 
3 177 178 187 
3 178 179 188 
3 171 180 182 
3 170 180 181 
3 173 182 184 
3 172 181 183 
3 174 183 185 
3 176 185 186 
3 177 186 187 
3 178 187 188 
3 179 188 189 
3 180 182 191 
3 180 181 190 
3 182 184 193 
3 181 183 192 
3 183 185 194 
3 185 186 195 
3 186 187 196 
3 187 188 197 
3 188 189 198 
3 180 191 190 
3 182 191 193 
3 181 190 192 
3 183 192 194 
3 185 194 195 
3 186 195 196 
3 187 196 197 
3 188 197 198 
3 189 198 199 
3 191 190 200 
3 191 193 202 
3 190 192 201 
3 192 194 203 
3 194 195 204 
3 195 196 205 
3 196 197 206 
3 197 198 207 
3 198 199 208 
3 191 200 202 
3 190 200 201 
3 192 201 203 
3 194 203 204 
3 195 204 205 
3 196 205 206 
3 197 206 207 
3 198 207 208 
3 199 208 209 
